<svg width="512" height="512" viewBox="0 0 512 512" fill="none" xmlns="http://www.w3.org/2000/svg">
<path d="M512 0H0V512H512V0Z" fill="black"/>
<path d="M125.63 363.171H127.953V373.472H135.697V380.829H127.953V394.534C127.953 396.189 128.185 397.478 128.65 398.406C129.114 399.286 129.94 399.725 131.128 399.725C132.006 399.725 132.857 399.517 133.683 399.104C134.509 398.691 135.31 398.227 136.084 397.712V406.538C134.432 407.469 132.909 408.112 131.515 408.474C130.121 408.886 128.701 409.094 127.256 409.094C124.003 409.094 121.448 408.243 119.589 406.538C117.731 404.784 116.801 401.997 116.801 398.176V380.829H112.465V378.118L125.63 363.171Z" fill="white"/>
<path d="M154.443 361.235C154.443 362.89 153.849 364.333 152.661 365.574C151.526 366.762 150.106 367.354 148.402 367.354C146.802 367.354 145.356 366.762 144.066 365.574C142.827 364.333 142.207 362.89 142.207 361.235C142.207 359.482 142.827 358.035 144.066 356.899C145.305 355.712 146.75 355.12 148.402 355.12C150.054 355.12 151.474 355.712 152.661 356.899C153.849 358.086 154.443 359.533 154.443 361.235ZM153.9 373.472V408.32H142.749V373.472H153.9Z" fill="white"/>
<path d="M191.558 384.701V408.32H180.406V386.403C180.406 383.718 179.503 382.378 177.696 382.378C176.973 382.378 176.276 382.688 175.605 383.306C174.934 383.875 174.366 384.909 173.901 386.403V408.32H162.75V373.472H173.901V378.118H174.056C175.14 376.362 176.328 375.046 177.618 374.17C178.961 373.293 180.51 372.851 182.265 372.851C185.053 372.851 187.298 373.859 189.002 375.872C190.706 377.885 191.558 380.829 191.558 384.701Z" fill="white"/>
<path d="M208.434 373.472L212.616 388.96H212.771L217.185 373.472H228.491L209.518 425.59H198.832L207.118 403.44L196.586 373.472H208.434Z" fill="white"/>
<path d="M134.981 437.536V445.632C133.645 444.656 132.282 443.885 130.894 443.318C129.506 442.755 128.092 442.47 126.652 442.47C125.779 442.47 125.162 442.65 124.802 443.011C124.442 443.37 124.262 443.808 124.262 444.323C124.262 444.989 124.545 445.606 125.11 446.173C125.727 446.688 126.498 447.251 127.424 447.869L130.354 449.798C132.154 451.03 133.593 452.496 134.673 454.192C135.804 455.891 136.37 457.843 136.37 460.054C136.37 463.293 135.29 465.917 133.131 467.92C130.971 469.875 128.143 470.851 124.647 470.851C123.002 470.851 121.331 470.646 119.635 470.234C117.938 469.824 116.113 469.053 114.159 467.92V459.283C115.804 460.57 117.269 461.494 118.555 462.061C119.892 462.624 121.306 462.909 122.796 462.909C123.413 462.909 124.005 462.752 124.57 462.445C125.187 462.138 125.496 461.622 125.496 460.902C125.496 459.565 123.542 457.664 119.635 455.197C115.727 452.675 113.773 449.206 113.773 444.784C113.773 441.853 114.853 439.437 117.012 437.536C119.172 435.632 121.897 434.682 125.187 434.682C126.832 434.682 128.452 434.912 130.046 435.376C131.691 435.789 133.336 436.506 134.981 437.536Z" fill="white"/>
<path d="M153.099 425.12H155.412V435.376H163.124V442.701H155.412V456.352C155.412 457.997 155.644 459.283 156.106 460.208C156.569 461.082 157.392 461.52 158.574 461.52C159.448 461.52 160.297 461.315 161.119 460.902C161.942 460.493 162.739 460.029 163.51 459.514V468.307C161.865 469.232 160.348 469.875 158.96 470.234C157.572 470.646 156.158 470.851 154.718 470.851C151.479 470.851 148.934 470.003 147.083 468.307C145.232 466.557 144.307 463.782 144.307 459.978V442.701H139.988V440.003L153.099 425.12Z" fill="white"/>
<path d="M180.945 435.376V457.2C180.945 459.926 181.845 461.29 183.644 461.29C184.416 461.29 185.136 460.979 185.804 460.362C186.472 459.747 187.038 458.691 187.5 457.2V435.376H198.606V470.08H187.5V465.453H187.346C185.238 468.95 182.513 470.698 179.171 470.698C176.395 470.698 174.133 469.722 172.385 467.766C170.688 465.76 169.84 462.832 169.84 458.976V435.376H180.945Z" fill="white"/>
<path d="M236.079 418.563V470.08H223.894C217.776 470.08 213.226 468.666 210.243 465.837C207.313 462.96 205.848 458.666 205.848 452.96C205.848 447.459 207.03 443.062 209.395 439.773C211.811 436.429 215.128 434.758 219.344 434.758C220.012 434.758 220.835 434.81 221.811 434.912C222.788 435.018 223.842 435.248 224.973 435.606V418.563H236.079ZM223.2 461.366H224.973V443.782C224.048 443.421 223.045 443.242 221.966 443.242C220.475 443.242 219.318 444.064 218.495 445.709C217.724 447.357 217.339 449.798 217.339 453.037C217.339 455.968 217.776 458.099 218.65 459.437C219.523 460.723 221.04 461.366 223.2 461.366Z" fill="white"/>
<path d="M256.501 423.19C256.501 424.835 255.91 426.275 254.728 427.51C253.596 428.691 252.183 429.283 250.486 429.283C248.892 429.283 247.452 428.691 246.167 427.51C244.933 426.275 244.316 424.835 244.316 423.19C244.316 421.443 244.933 420.003 246.167 418.874C247.401 417.69 248.841 417.098 250.486 417.098C252.131 417.098 253.545 417.69 254.728 418.874C255.91 420.054 256.501 421.494 256.501 423.19ZM255.962 435.376V470.08H244.856V435.376H255.962Z" fill="white"/>
<path d="M293.77 452.883C293.77 458.486 292.356 462.909 289.528 466.147C286.701 469.386 282.999 471.005 278.423 471.005C273.847 471.005 270.171 469.386 267.395 466.147C264.619 462.858 263.23 458.435 263.23 452.883C263.23 447.536 264.645 443.165 267.472 439.773C270.351 436.378 274.002 434.682 278.423 434.682C282.999 434.682 286.701 436.352 289.528 439.696C292.356 442.986 293.77 447.382 293.77 452.883ZM278.423 462.214C279.709 462.214 280.66 461.469 281.277 459.978C281.894 458.486 282.202 456.147 282.202 452.96C282.202 449.824 281.894 447.459 281.277 445.866C280.66 444.218 279.683 443.395 278.346 443.395C277.215 443.395 276.315 444.166 275.647 445.709C275.03 447.251 274.721 449.67 274.721 452.96C274.721 456.25 275.03 458.614 275.647 460.054C276.264 461.494 277.189 462.214 278.423 462.214Z" fill="white"/>
<path d="M362.69 227.952H298.887V328.96L362.69 310.58V227.952Z" fill="white"/>
<path fill-rule="evenodd" clip-rule="evenodd" d="M107.199 36.16H404.799V333.76H357.887V316.958L299.562 333.76H107.199V36.16ZM357.887 306.968V232.752H303.684V322.582L357.887 306.968ZM294.084 324.16V223.152H367.487V324.16H395.199V45.76H116.799V324.16H294.084Z" fill="white"/>
</svg>
