<svg width="256" height="256" viewBox="0 0 256 256" fill="none" xmlns="http://www.w3.org/2000/svg">
<g clip-path="url(#clip0_2347_4616)">
<path d="M61.5277 171.238C61.5277 167.528 61.9914 159.18 61.9914 159.18C61.9914 146.195 61.9914 133.209 60.6003 120.687C60.1367 116.05 59.673 111.875 59.2093 107.238C59.2093 105.383 58.7456 101.208 58.7456 101.208C58.7456 93.7869 60.1367 86.832 60.6003 79.4108C61.064 76.165 61.5277 71.9895 59.673 68.7438C57.6695 65.7417 53.9903 64.6654 50.5266 63.9475L51.7882 64.1049C51.2684 64.0467 50.8026 63.9691 50.3066 63.9C49.032 63.6412 47.7919 63.4234 46.6855 63.1776C46.28 63.1776 45.7581 63.1538 45.2017 63.1193C43.7028 62.8929 42.2191 62.7139 40.6577 62.7139C39.2666 62.7139 37.8756 62.7139 36.9482 63.1775C36.4845 63.1775 35.5571 64.1049 35.0934 64.1049C33.2387 64.1049 32.3114 64.1049 30.9205 65.4959C30.4568 66.4233 29.9931 68.278 29.9931 68.278C29.5294 69.2054 30.4568 73.3786 30.4568 74.308V75.699C30.4568 78.0174 30.9205 80.3358 30.9205 82.6565C31.093 83.1719 31.1275 83.6916 31.1361 84.2092C31.0563 84.4594 30.9528 84.6945 30.9205 84.977C30.4568 88.6866 31.8478 94.2527 32.3115 97.4985C32.3115 99.3532 33.2389 103.528 33.2389 103.528C32.7752 116.05 34.6299 128.108 35.0936 140.63C35.5573 144.339 35.0936 148.051 35.0936 151.297V153.152C34.1662 160.573 34.1662 160.573 34.6299 168.919C35.0936 170.31 35.5573 173.092 35.5573 173.092C35.5573 175.742 35.8635 179.894 35.9778 181.598C35.7082 182.555 35.5573 183.502 35.5573 184.222C35.5573 185.15 36.0209 187.468 36.0209 187.468V188.395C36.4846 189.786 36.4846 192.568 37.8757 193.96C38.803 194.887 41.5852 196.278 41.5852 196.278C42.5126 196.742 43.9036 196.278 43.9036 196.278C44.831 197.205 46.222 197.205 47.1494 196.742C47.613 196.742 48.5404 196.278 48.5404 196.278C49.3815 196.384 50.3218 196.455 51.2665 196.457C54.5404 197.339 58.06 197.22 60.1346 194.887C61.9894 193.032 61.9894 189.786 61.9894 187.002C61.9894 186.539 61.5257 184.684 61.5257 184.684C62.9189 180.513 61.5277 175.877 61.5277 171.238Z" fill="#FBFBFD" stroke="#FBFBFD" stroke-width="7.46667"/>
<path d="M94.5824 187.674C94.4207 184.631 94.0886 181.898 94.0476 180.652C93.8341 173.636 92.6005 166.674 92.6005 159.644C92.1368 149.44 91.6731 139.701 91.2094 129.498C90.7458 125.325 89.3547 118.367 89.8184 113.731C90.2821 106.309 89.8184 99.8179 89.3547 91.9332C88.891 88.2237 88.4274 84.512 88.4274 80.8028C87.9637 78.9481 87.9637 75.2385 88.4274 75.2385C88.4274 73.3838 88.891 70.6017 87.9637 68.7448C87.5 67.8175 86.5726 67.3538 85.6453 67.3538C84.7179 66.8901 83.3269 66.8901 82.8632 66.8901C82.6799 66.5278 82.3866 66.1827 82.0933 65.8484L82.3995 65.9627C82.2334 65.8226 82.0782 65.7277 81.9143 65.6069C81.4959 65.1799 81.0235 64.8132 80.5448 64.5717H79.9021C76.1647 63.6012 74.6702 69.0554 75.4444 72.9201C77.7628 82.6596 78.2264 93.79 78.6901 103.53C78.6901 106.776 79.1538 110.487 79.1538 113.733C79.1538 115.588 79.6175 118.833 79.6175 118.833C80.5448 138.776 81.4722 159.181 83.327 179.587C83.8381 185.197 81.2544 195.807 87.4267 199.26C94.425 203.172 94.9532 194.618 94.5824 187.674Z" fill="#FBFBFD" stroke="#FBFBFD" stroke-width="7.46667"/>
<path d="M144.078 162.89C143.614 140.629 144.542 118.368 143.614 96.1075C143.151 91.9345 142.223 88.2228 142.223 84.0495C141.76 80.34 142.687 76.1649 142.223 72.4553C141.76 68.7458 140.832 63.1797 136.659 61.7884C134.804 61.3247 132.95 61.7884 131.095 61.7884C130.167 61.7884 128.776 62.252 128.313 62.252C125.994 62.7157 124.14 62.252 122.283 62.252C121.355 62.252 119.964 62.7157 119.964 62.7157H117.646C116.977 62.0471 115.593 61.3829 114.87 61.0615L117.646 62.252C115.328 59.9336 111.616 60.3973 109.761 63.1794C108.834 64.1067 108.834 65.9614 108.834 67.3523C109.298 67.816 109.761 69.2071 109.761 69.2071C110.689 97.496 111.152 125.787 111.616 154.077C112.08 164.744 112.08 175.41 112.08 186.077C112.08 190.25 110.689 197.671 116.253 199.526C120.889 200.917 126.456 199.062 131.093 198.598C134.338 198.135 137.123 199.989 140.368 199.526C145.933 198.598 146.862 193.496 146.398 188.859C145.932 180.049 144.542 171.7 144.078 162.89Z" fill="#FBFBFD" stroke="#FBFBFD" stroke-width="7.46667"/>
<path d="M174.224 182.832V178.195C174.224 177.268 173.76 175.413 174.224 175.413C174.224 161.5 170.978 147.588 170.051 133.674C169.123 122.544 170.051 111.877 169.123 101.21C168.66 94.2527 168.196 87.2974 167.269 80.3403C167.269 78.4856 166.805 76.6308 166.805 75.2398C166.805 72.4577 167.269 67.3551 167.269 67.3551C167.732 65.0367 167.269 62.7183 165.414 61.3252C164.972 61.1031 164.321 60.9909 163.753 60.9327C162.811 60.5272 161.797 60.51 160.775 61.3252C158.92 62.2525 158.457 63.6436 157.993 65.4982C157.993 65.9618 157.529 66.8892 157.529 66.8892C153.356 66.8892 153.82 74.3104 154.284 76.6287C154.747 78.4834 155.211 80.8016 155.675 82.6586V84.0496C156.138 86.8317 156.602 89.6139 157.066 92.8618C157.529 94.7166 157.529 97.0348 157.993 99.3555C160.311 116.05 157.993 133.211 161.239 150.37C162.166 155.007 161.702 159.646 162.63 164.283C163.557 167.529 164.021 170.313 164.485 173.095V175.877V180.514C164.485 181.441 164.948 182.832 164.948 182.832C164.948 187.005 163.093 199.527 170.978 198.136C175.151 197.209 175.151 191.642 174.688 188.396C174.688 186.546 174.224 183.296 174.224 182.832Z" fill="#FF6600" stroke="#FF6600" stroke-width="7.46667"/>
<path d="M225.702 176.803C225.238 170.773 224.775 160.572 224.775 155.933C224.775 139.702 224.311 123.933 224.311 107.701C224.311 100.28 224.775 92.8612 224.311 85.44C224.311 80.3395 223.847 75.2368 223.847 70.6C223.847 67.3543 224.775 64.1063 223.847 61.3243C223.034 59.2971 221.846 58.001 220.326 57.0821L220.602 57.1511C220.481 57.0994 220.332 57.0605 220.209 57.0109C220.03 56.9053 219.866 56.7823 219.674 56.6896C219.111 56.4092 218.249 56.3057 217.625 56.2626C213.489 55.4193 208.24 55.7795 205.298 57.617C203.907 58.0807 202.052 59.4717 201.588 60.8628C201.125 61.7901 200.661 63.6448 200.661 63.6448C199.734 62.7175 197.879 62.2538 196.951 62.7175C192.315 65.4996 193.242 68.7474 194.169 73.8479C195.097 83.1236 196.488 91.9358 197.879 101.209C199.734 115.585 201.588 130.428 201.588 145.267C202.052 150.368 200.661 154.08 201.125 158.716C202.052 163.817 202.979 169.383 203.443 174.947C203.907 178.193 203.443 183.759 204.37 187.469C204.834 189.787 206.689 191.642 209.007 191.642C209.935 192.105 210.862 191.642 212.253 191.642C212.717 191.178 213.644 191.178 213.644 191.178C215.035 192.105 216.426 193.496 218.281 192.569C219.672 192.105 221.063 190.251 221.063 190.251C228.02 187.932 226.166 182.831 225.702 176.803Z" fill="#FBFBFD" stroke="#FBFBFD" stroke-width="7.46667"/>
</g>
<defs>
<clipPath id="clip0_2347_4616">
<rect width="200" height="147.826" fill="white" transform="translate(28 54.0869)"/>
</clipPath>
</defs>
</svg>
