<svg width="256" height="256" viewBox="0 0 256 256" fill="none" xmlns="http://www.w3.org/2000/svg">
<g clip-path="url(#clip0_2347_4569)">
<path d="M92.6036 43.1105C92.3157 43.1339 92.0371 43.1643 91.7656 43.1971L94.4646 43.0449C93.8349 43.0613 93.2216 43.0917 92.6036 43.1105Z" fill="#FBFBFD" stroke="#FBFBFD" stroke-width="7.46667"/>
<path d="M122.098 36.9255C121.595 36.4222 119.582 35.4156 119.582 35.4156C119.079 33.9058 117.065 32.396 116.562 32.396C116.059 31.3894 114.549 30.8861 113.543 30.8861C113.039 30.8861 111.529 30.3829 111.529 30.3829H106.497H98.9452H97.9386C92.9059 30.3829 88.8773 29.8796 83.8446 30.3829H73.2735C70.7571 30.3829 67.7374 30.3829 64.7155 30.8861C62.7024 31.3894 60.6892 31.8927 58.676 31.8927C58.1728 32.3959 57.6695 32.3959 57.1662 32.3959C53.6433 32.3959 50.118 32.3959 46.5951 32.8992C45.0852 33.4025 44.0787 33.9057 43.0721 34.409C42.5689 34.409 41.5623 34.9123 41.5623 34.9123C37.536 34.9123 31.9976 36.4222 30.4878 40.4484C29.9845 42.4615 29.9845 44.4747 30.4878 46.9932V48.5031C30.4878 63.6038 31.9976 78.7043 33.0042 93.8064C33.5075 98.8391 31.9976 109.914 36.5271 114.446C42.0632 119.982 53.6407 116.459 60.1859 115.955C62.7023 115.452 67.2341 115.955 67.7374 115.955C68.744 115.452 71.2604 114.949 71.2604 114.949C77.2998 114.949 83.3413 115.955 89.3807 116.459C95.9255 116.962 98.9454 116.459 104.985 115.956C110.017 115.452 116.562 116.459 118.575 110.923C121.595 104.378 119.582 95.319 120.085 88.7738C121.092 76.1896 123.608 63.6053 126.124 51.021C127.131 47.4981 128.138 43.4695 126.124 40.4499C124.615 38.9377 123.608 37.932 122.098 36.9255ZM108.004 78.2019C108.004 81.7248 107.501 87.7666 107.501 92.2959C108.004 95.3156 108.004 98.3354 108.004 100.854C108.004 102.364 108.004 104.88 107.501 104.88C102.468 104.88 97.9362 102.867 92.9035 102.867C90.8904 102.867 89.3806 103.37 87.3674 103.37H84.3478H79.8184H75.7921C68.744 104.377 64.2143 104.377 57.1684 104.377C55.6586 104.88 53.1421 104.377 53.1421 103.874C54.1487 102.867 58.1748 100.351 56.6651 97.8342C55.1552 95.3178 48.1071 98.8407 47.6037 98.8407C47.6037 96.8276 47.1005 92.8013 47.1005 92.2959C47.1005 82.2281 47.1005 72.16 48.107 62.0946C48.6103 57.5653 48.6103 54.0397 49.1135 50.0137C49.1135 49.0072 49.6168 46.9941 49.6168 46.9941C59.1815 45.9876 68.7459 44.4777 78.3083 43.9744C82.3346 43.9744 86.3632 43.4712 90.3892 43.4712C90.7379 43.3541 91.2272 43.2675 91.7679 43.1996L77.8047 43.9745C82.868 43.5859 87.6805 43.2675 92.6082 43.1084C94.2187 42.9679 95.9275 42.9679 95.9275 42.9679L94.4668 43.0475C95.2955 43.0311 96.0914 42.9679 96.934 42.9679H104.989C106.499 42.9679 109.015 42.9679 109.015 43.4712C108.507 55.049 108.507 66.6257 108.004 78.2019Z" fill="#FBFBFD" stroke="#FBFBFD" stroke-width="7.46667"/>
<path d="M157.837 132.062L152.364 131.629C152.687 131.676 153.006 131.716 153.326 131.763C154.867 131.938 156.409 132.062 157.837 132.062Z" fill="#FBFBFD" stroke="#FBFBFD" stroke-width="7.46667"/>
<path d="M224.786 139.11C224.282 138.103 223.276 136.594 221.766 136.09C220.76 135.587 219.25 135.084 218.746 135.084C217.74 134.581 216.23 134.077 214.72 134.581H212.204C210.191 134.077 205.659 133.574 205.659 133.574C197.604 132.567 192.068 133.071 184.013 133.071C182 133.071 168.409 134.581 163.877 133.574C160.177 132.902 156.726 132.289 153.327 131.769C152.908 131.722 152.52 131.669 152.103 131.612L152.365 131.633C151.003 131.434 149.627 131.193 148.274 131.06C145.254 131.06 142.234 130.557 139.212 130.557C139.149 130.557 139.051 130.573 138.978 130.578C138.814 130.564 138.709 130.557 138.709 130.557L138.974 130.578C137.92 130.634 136.158 131.06 135.689 131.06C126.125 131.06 131.16 144.651 131.663 149.18C131.663 152.703 132.166 156.228 132.67 159.248V161.261C132.67 172.336 133.173 182.907 132.67 193.478C132.67 197.001 132.166 200.023 131.663 203.043V207.572C131.663 210.592 130.657 216.13 132.67 218.646C133.676 219.653 135.186 220.156 136.696 220.156C137.199 220.156 138.206 219.653 138.206 219.653C139.212 222.673 141.729 225.189 145.254 225.692C146.764 225.692 147.77 225.189 148.777 224.686C149.783 224.686 151.293 224.183 151.293 224.183C159.851 223.679 168.407 220.66 176.965 220.66C178.475 220.66 179.482 220.66 180.991 221.163C184.514 221.163 191.563 221.666 191.563 221.666H194.079H197.099C200.622 222.169 205.154 223.176 209.18 222.673C210.186 222.673 211.696 222.169 212.702 221.666C213.709 221.163 215.219 220.156 215.219 220.156C217.232 219.15 218.238 219.15 219.748 217.64C220.755 217.64 221.761 216.13 221.761 216.13C222.768 215.124 223.271 213.11 223.271 213.11C224.781 208.581 225.284 201.03 225.284 196.5C225.284 179.386 225.284 165.292 225.787 149.183C225.792 146.159 226.799 141.626 224.786 139.11ZM210.692 198.508C210.692 201.024 211.195 203.54 211.195 205.556C210.692 207.066 209.685 209.582 209.685 209.582C201.63 210.589 195.591 209.079 187.536 209.582C184.013 209.582 180.991 210.085 177.971 210.085C176.965 210.085 175.455 210.589 175.455 210.589H174.448H169.416C168.913 210.589 167.403 210.589 166.899 211.092C163.376 211.092 159.348 212.099 155.322 212.099C152.805 211.595 147.267 211.595 147.267 211.092C147.267 210.085 146.763 208.072 146.763 208.072C146.26 206.563 146.26 204.046 146.26 203.543C146.26 195.488 147.267 187.436 146.26 179.381C145.757 176.361 145.254 173.845 145.254 170.823C145.254 169.313 144.75 166.797 144.75 166.797V156.226C144.247 155.219 144.247 153.206 144.247 153.206C144.247 152.703 144.247 152.199 144.75 152.199C144.75 152.199 144.247 152.199 144.247 151.696C144.75 150.69 144.75 148.676 144.75 148.173V142.637H145.254C150.79 144.65 157.334 144.65 163.374 144.65H169.413C170.42 144.65 172.433 144.147 172.936 144.147C175.453 144.65 177.969 144.65 180.488 144.65C183.004 144.147 189.046 144.147 189.046 144.147C193.575 144.147 198.107 144.65 202.636 145.153C204.65 145.153 209.181 144.65 209.181 144.65C213.711 146.16 210.691 155.725 210.691 158.744C211.194 180.891 211.698 178.373 210.692 198.508Z" fill="#FBFBFD" stroke="#FBFBFD" stroke-width="7.46667"/>
<path d="M135.185 88.7729V93.8056C135.185 94.8122 135.185 95.8188 135.689 96.8253C135.689 97.8318 136.192 99.3417 136.192 99.3417C136.192 103.871 135.185 109.913 140.218 111.423C142.735 112.429 145.251 111.423 147.267 110.919C149.783 110.919 153.811 109.913 153.811 109.913H154.315H158.341C171.429 110.919 170.422 95.8187 168.912 85.7506C168.409 83.7375 168.409 79.7112 166.899 77.6957C165.892 76.1859 164.886 75.6826 163.879 75.1793C163.376 74.676 161.866 74.676 161.866 74.1728C160.86 74.1728 159.853 73.6695 158.846 73.6695C158.343 73.6695 156.33 73.1662 156.33 73.1662C155.944 73.0679 155.478 72.9743 154.989 72.8807C153.982 72.663 152.983 72.5014 151.993 72.3914C151.019 72.251 150.295 72.1597 150.295 72.1597L151.187 72.3071C148.945 72.1386 146.768 72.3048 144.757 73.1662C144.254 73.1662 142.744 74.1728 142.744 75.1793C142.241 75.6826 142.241 76.6892 141.737 76.6892C139.221 75.6826 136.201 77.1925 135.192 80.2121C135.192 81.2186 134.689 82.2252 135.192 83.735C135.185 85.2495 135.185 88.7729 135.185 88.7729Z" fill="#FF6600" stroke="#FF6600" stroke-width="7.46667"/>
<path d="M116.56 139.613C115.554 138.103 112.031 136.593 112.031 136.593C110.521 134.58 108.005 133.574 104.983 133.574H98.9434V133.07H94.4141C93.9108 133.574 92.401 134.077 92.401 134.077C90.8911 134.077 89.3813 134.58 88.3747 135.083C87.8714 135.587 87.3681 137.097 87.3681 137.097C83.8452 138.103 82.8388 142.633 82.8388 145.654C82.8388 149.681 82.3355 154.212 82.3355 158.742C82.3355 161.762 81.329 168.81 83.8454 171.83C86.865 175.856 91.9003 174.346 96.4297 174.346C98.946 173.843 101.966 174.346 104.485 174.346H111.533C112.036 174.346 113.546 173.34 113.546 173.34C115.559 172.836 116.566 170.32 116.062 168.81V165.287C116.062 163.274 116.566 159.751 116.566 159.751C117.069 156.228 116.566 149.684 116.566 149.18C117.064 146.158 118.07 142.129 116.56 139.613Z" fill="#FF6600" stroke="#FF6600" stroke-width="7.46667"/>
</g>
<defs>
<clipPath id="clip0_2347_4569">
<rect width="200" height="199.101" fill="white" transform="translate(28 28.4492)"/>
</clipPath>
</defs>
</svg>
