<svg width="256" height="256" viewBox="0 0 256 256" fill="none" xmlns="http://www.w3.org/2000/svg">
<path d="M184.437 125.791C188.683 118.291 193.065 110.541 197.664 103.39C199.215 103.315 200.81 103.282 202.43 103.252C210.311 103.094 218.462 102.927 224.936 97.958C228.413 94.4809 228.994 90.4189 226.354 87.2593C225.97 86.8736 225.425 86.5472 224.803 86.3127C221.428 84.6672 217.386 85.3903 214.134 85.9643C213.323 86.109 212.554 86.247 211.768 86.3478C210.955 86.4946 210.028 86.6545 209.044 86.8167C211.369 82.7172 213.656 78.3789 215.424 73.7822C215.543 73.4207 215.86 72.6757 216.264 71.7161C217.497 68.7801 219.357 64.3412 219.743 61.5081C219.743 58.1886 218.091 55.2921 215.107 53.5106C214.254 53.0812 213.474 52.7876 212.927 52.6693C211.82 52.2442 210.716 52.0229 209.601 51.9747L209.296 53.1644L209.217 51.9484C208.413 51.8826 207.368 52.1127 205.834 52.586C205.414 52.7174 205.05 52.8401 204.98 52.8664L204.645 52.9059C195.215 54.9567 190.635 64.9587 186.597 73.7824C185.646 75.8617 184.734 77.8555 183.816 79.5973C181.735 83.3506 180.013 87.233 178.551 90.6685C163.534 91.8495 148.509 92.6076 131.827 93.4008C129.912 93.4928 124.781 95.169 123.461 93.5082C121.939 91.5888 125.12 86.6634 125.883 85.0418C129.956 76.3785 135.074 68.4136 139.561 60.1273L139.91 59.1348C140.271 58.151 140.582 57.3031 140.582 56.3302L140.567 53.7273C140.909 51.3236 141.63 46.3238 136.888 43.6197C136.264 43.3063 135.672 43.1617 135.151 43.0281C134.732 42.9251 134.375 42.8331 134.057 42.6753L133.727 42.5088H131.472L131.452 42.7038C129.364 42.6118 127.235 42.7827 125.278 43.2055C124.395 43.0018 123.591 42.9821 123.481 43.0368C121.866 42.958 120.324 43.5079 118.902 44.5925C117.162 45.3812 115.845 47.7936 115.585 48.3523C113.124 51.801 111.658 55.2257 110.214 58.6085C108.946 61.9915 107.02 66.4327 106.192 67.9555L105.626 68.718C104.873 69.9713 104.255 71.332 103.657 72.6444C103.069 73.9349 102.517 75.1532 101.796 76.3604C101.338 77.2719 99.9712 79.5484 99.969 79.555L99.8244 79.8683C99.4694 80.9397 98.4068 83.1417 98.0474 83.867C96.093 87.5458 94.0969 91.5683 91.7877 96.4785C90.9813 96.5442 90.1772 96.6099 89.3446 96.7107C77.469 98.1086 42.4296 93.2181 43.0325 112.591C43.118 115.337 45.4361 117.604 48.0237 118.516C50.6114 119.427 53.44 119.269 56.181 119.103C62.4279 118.719 68.7426 118.321 74.7258 116.482C77.182 115.728 82.0637 113.358 83.0649 116.23C83.7441 118.178 79.11 125.88 78.2709 127.928C75.8957 133.708 73.5206 139.488 71.0777 145.211C68.2075 144.948 65.622 145.618 63.124 146.269C61.7546 146.626 60.4597 146.964 59.1319 147.13C56.9737 147.487 54.9098 147.787 52.8896 148.079C46.9344 148.94 41.3079 149.753 34.7739 151.933C32.3593 152.901 30.0499 154.003 28.3565 156.823L28.2119 157.137C27.7277 158.6 28.1834 160.351 28.488 161.506C28.5011 161.554 28.5121 161.598 28.5252 161.637C28.2995 162.334 28.4441 163.072 28.5734 163.622C27.9665 165.688 28.1681 167.439 29.1759 168.83C31.4656 171.983 37.0528 171.951 40.738 171.929L41.7941 171.894C43.9961 171.451 46.2069 171.451 48.7723 171.436C50.3871 171.206 51.9976 171.089 53.6102 170.978C55.2973 170.859 56.9844 170.737 58.6036 170.504C59.3792 170.426 60.1899 170.351 61.0181 170.272C60.2162 172.59 59.3726 174.959 58.3932 177.342C57.6965 179.192 56.888 181.045 56.0773 182.897C55.2359 184.816 54.3989 186.735 53.6781 188.655L53.5861 189.12C53.562 189.251 53.4108 189.641 53.2224 190.038C52.1729 192.658 51.1781 195.71 51.6952 198.158C51.6952 199.229 52.6067 200.706 53.5138 201.905C53.2662 204.713 54.3266 207.415 56.3753 209.091C58.2289 210.607 60.5558 210.991 62.5498 210.219C62.7141 210.182 62.8609 210.138 62.9836 210.094H63.1633C64.1843 210.094 65.7005 210.094 66.9363 209.564C67.517 209.42 68.1545 209.021 68.8337 208.37C72.4555 206.212 73.9762 202.678 75.374 199.393C77.8893 194.867 79.7341 191.107 81.0969 186.527L85.2687 176.764C86.121 175.206 87.0084 173.69 87.8848 172.191C88.8401 170.563 89.7779 168.955 90.6521 167.338C96.178 166.946 101.781 166.694 107.21 166.455C111.542 166.26 115.887 166.069 120.291 165.802C124.289 165.506 130.358 164.823 138.788 163.71C136.667 167.998 134.403 172.229 132.202 176.341C130.065 180.327 127.918 184.341 125.839 188.504C123.924 192.343 122.442 195.794 121.47 200.174L121.432 203.993L121.895 204.451C122.052 204.609 122.392 205.06 122.723 205.531C121.853 209.523 123.336 211.486 124.782 212.435C125.911 213.18 127.383 213.493 129.005 213.491C133.15 213.491 138.255 211.425 141.016 209.217C145.155 205.487 147.212 199.263 148.862 194.258C149.226 193.152 149.572 192.104 149.918 191.151C150.959 188.292 152.166 186.151 153.441 183.886C154.421 182.142 155.442 180.338 156.445 178.127C158.279 174.455 160.591 171.092 162.826 167.84C163.987 166.151 165.15 164.46 166.294 162.659C166.772 161.824 167.205 160.969 167.635 160.11L167.854 159.677L167.961 159.663C178.619 158.274 189.635 156.839 200.575 154.935C201.355 154.782 202.186 154.681 203.036 154.578C204.817 154.361 206.66 154.135 208.192 153.506C210.749 152.867 212.681 150.391 212.681 147.742V147.372L212.514 147.041C212.302 146.607 212.085 146.064 211.868 145.525C211.614 144.887 211.355 144.249 211.101 143.741L210.865 143.277L208.741 142.212C207.394 140.871 206.634 140.176 204.423 139.624L204.044 139.576C203.362 139.576 202.683 139.444 202.072 139.331C200.356 139.017 199.125 139.214 198.275 139.462C198.106 139.512 197.957 139.558 197.99 139.576C190.694 139.245 183.632 139.618 177.009 140.139C178.198 137.51 179.515 134.692 180.911 132.032L184.437 125.791ZM171.993 105.587C171.117 107.158 170.177 108.659 169.248 110.149C167.71 112.614 166.119 115.162 164.995 117.712C162.872 121.249 160.633 125.258 158.393 129.266C156.156 133.265 153.921 137.266 151.807 140.787C151.428 141.404 151.051 141.987 150.672 142.568L149.827 142.649C132.528 144.371 114.664 146.148 97.1515 146.328C97.1734 146.253 97.1931 146.181 97.215 146.104C97.57 143.981 98.9197 141.35 100.112 139.032L100.929 137.393C101.126 136.792 101.72 135.609 102.195 134.656C102.846 133.353 103.166 132.702 103.295 132.224C104.671 129.485 106.155 126.747 107.64 124.003C109.183 121.151 110.727 118.302 112.154 115.45C113.008 113.741 113.863 112.126 114.713 110.524C115.447 110.399 115.924 110.298 116.257 110.191C119.91 110.191 123.674 110.178 127.234 109.72C129.185 109.72 133.356 109.262 133.361 109.249C136.724 109.249 140.539 109.249 143.946 108.762C145.409 108.554 147.335 108.25 149.066 107.98C151.078 107.667 152.813 107.389 153.26 107.358C158.746 106.972 168.86 105.92 171.993 105.587Z" fill="#FBFBFD"/>
</svg>
