<svg width="256" height="256" viewBox="0 0 256 256" fill="none" xmlns="http://www.w3.org/2000/svg">
<g clip-path="url(#clip0_2347_4542)">
<path d="M83.2526 87.4229C82.8112 87.6703 82.3449 88.0413 81.8582 88.5337L81.3737 89.0238C80.6086 89.7956 80.2668 90.5834 79.968 91.275C79.7823 91.6987 79.5854 92.1704 79.2209 92.7224L78.8768 93.1438V93.6385C78.7885 93.8194 78.6731 94.053 78.5871 94.3301C77.1428 96.002 75.9747 98.7227 76.5293 101.265C76.5814 101.83 76.7783 102.749 76.9708 103.55C76.4841 106.66 76.5791 108.474 78.1479 111.115C78.7591 112.349 80.5293 113.755 81.1292 114.206C81.8173 114.669 82.3923 115.136 82.9628 115.599C83.608 116.121 84.2509 116.639 85.0228 117.161L85.4574 117.408L85.8853 117.438C86.4014 117.475 87.9498 117.878 87.9634 117.882L89.1359 117.933C90.055 118.152 90.8292 118.258 91.5694 118.258C92.8575 118.258 94.0776 117.942 95.2004 117.358C96.4636 116.934 98.2293 115.935 99.0239 115.473L99.6691 115.354C102.526 114.197 104.221 111.909 105.568 110.063C105.994 109.633 106.257 109.026 106.533 108.385C106.578 108.284 106.617 108.181 106.662 108.082L107.305 107.226C110.479 101.34 107.318 93.1574 102.567 88.9549L102.225 88.7213C101.614 88.4121 101.059 88.0525 100.498 87.6975L99.8866 87.3105L99.8368 87.3884L99.873 87.299C98.8317 86.6463 97.6591 85.9982 96.1628 85.6638C95.4881 85.3707 94.6008 85.1966 93.5572 85.1348L91.2686 85.0981C89.3467 85.0981 86.8204 85.8654 86.0734 86.1059C85.5029 86.1814 84.8826 86.4311 84.4503 86.6349C83.9953 86.7471 83.5559 87.0198 83.2526 87.4229Z" fill="#FF6600"/>
<path d="M162.53 87.0535C161.865 86.3802 160.219 85.2969 159.187 84.7748L158.933 84.6076H158.551C158.415 84.5847 158.009 84.4267 157.901 84.3878C156.678 83.5633 155.485 83.2953 154.435 83.0572C154 82.9587 153.566 82.8625 153.133 82.7182L150.186 82.6335C149.76 82.6335 149.333 82.5808 148.905 82.535C147.635 82.393 146.519 82.2923 145.079 82.8075C144.375 83.1648 143.427 83.7671 142.892 84.1107H142.503L142.161 84.2847C141.167 84.7863 139.218 86.3299 138.591 86.8315C137.437 87.4612 136.332 88.5743 135.696 89.7446C135.526 89.9576 135.397 90.1889 135.286 90.4271L134.44 90.3355V91.9776L133.962 92.4562V93.6174C133.597 94.2678 133.317 95.1243 133.115 95.8755C132.844 96.3519 132.764 96.8878 132.774 97.4031L132.518 98.8115C131.954 102.819 134.53 107.12 137.19 109.882C137.652 110.684 138.283 111.213 138.897 111.721C139.182 111.957 139.488 112.212 139.793 112.518L140.18 112.995H140.853C140.989 113.018 141.392 113.176 141.677 113.32C141.978 113.473 142.431 113.7 142.725 113.881V114.344L143.621 114.797C145.568 115.782 147.653 116.281 149.824 116.281C158.655 116.281 167.427 107.704 167.868 98.7359C168.484 93.054 165.468 89.6004 162.53 87.0535Z" fill="#FBFBFD"/>
<path d="M75.847 151.745L75.5459 152.049L75.5527 157.811C76.3993 166.807 83.7858 176.438 93.4336 176.438C95.1993 176.438 96.965 176.103 98.7239 175.423C105.053 172.757 109.83 166.853 110.919 160.118C110.919 156.66 110.022 153.394 108.313 150.518C107.858 149.602 106.792 148.104 106.373 147.529C105.377 144.517 104.202 141.176 100.768 139.44C99.8399 138.97 98.708 138.4 97.1211 138.297C96.4375 137.958 95.4595 137.791 94.2077 137.791L94.1783 138.041H94.0493C90.5224 138.041 86.923 139.122 82.9864 141.32C80.8676 142.037 79.6542 143.544 78.9456 144.673C78.3751 145.25 77.4583 146.624 77.2818 146.892C76.5393 148.019 76.2699 149.535 76.048 150.749C75.9847 151.081 75.9077 151.512 75.8465 151.745L75.847 151.745Z" fill="#FBFBFD"/>
<path d="M163.324 137.134C161.192 135.515 157.918 134.343 155.539 134.343H151.645V134.357C150.224 134.423 149.017 134.59 147.725 134.918C146.235 135.419 144.693 135.939 143.616 136.484L143.195 136.793C142.695 137.299 142.332 137.634 142.115 137.792L141.56 138.025C139.039 139.555 136.18 141.289 135.095 144.626C134.563 145.707 133.957 146.934 133.957 148.299L133.979 150.001C133.502 152.896 134.219 154.959 135.05 157.343L135.591 158.882C135.899 159.509 136.474 160.222 137.083 160.973C137.404 161.367 137.719 161.738 137.891 162.008C138.491 166.339 141.239 171.503 147.102 172.094L147.265 172.101C148.2 172.101 149.319 171.927 150.672 171.608C151.213 171.608 151.847 171.395 152.343 171.182C154.65 171.492 158.575 170.553 160.157 169.465C160.712 169.185 161.529 168.65 162.591 167.882C166.697 166.74 169.208 161.923 169.76 158.623C170.274 157.396 170.366 155.724 169.753 154.592C169.685 154.208 169.572 153.768 169.447 153.349C171.768 147.795 166.864 139.692 163.324 137.134Z" fill="#FBFBFD"/>
<path d="M55.0131 45.3804C53.7612 44.746 51.7579 44.73 51.4817 44.7208C49.2156 44.5605 47.0968 45.1903 45.5984 46.4706C43.4864 47.8951 42.4043 50.6364 42.0376 51.7472L41.9539 52.267C41.9539 53.0182 41.938 53.5839 41.9018 53.9503L41.6347 54.4885C41.2476 55.2694 41.2227 56.3115 41.2227 57.807C41.2227 58.0887 41.2249 58.3612 41.2227 58.5949C39.4207 59.8797 38.5515 61.9363 38.8797 64.2196C39.3438 67.4442 42.0466 70.4055 45.0075 71.0581C45.7885 71.3237 46.6261 71.4589 47.4931 71.4589C50.0239 71.4589 52.7856 70.284 54.7619 68.3786C55.8779 67.7488 56.8785 66.7365 57.3765 66.2303C57.8315 65.77 58.2299 65.1104 58.4608 64.6913C62.0533 61.9065 64.4031 56.7583 62.0601 52.0246C60.9215 49.7206 59.1648 47.7785 56.9916 46.4113L56.6996 46.89L56.9011 46.3518C56.2469 45.9464 55.5699 45.6003 55.0131 45.3804Z" fill="#FBFBFD"/>
<path d="M86.9963 47.9128C83.6663 51.9779 83.7093 57.1791 87.0099 61.0586C89.8372 65.3458 93.5885 67.7071 97.5767 67.7071C100.422 67.7071 103.1 66.4795 105.108 64.2489C107.587 61.5007 108.737 57.6303 108.347 53.3475C108.11 50.7573 107.419 48.3297 106.349 46.3214C104.336 42.5632 101.117 40.4058 97.5087 40.4058C94.5229 40.4058 91.469 41.8898 88.6757 44.6999L86.9963 47.9128Z" fill="#FBFBFD"/>
<path d="M164.477 41.751C163.248 40.5074 161.41 39.7905 159.434 39.7905H157.81C157.353 39.6188 156.88 39.5317 156.536 39.4745C156.35 39.4379 156.169 39.4127 155.893 39.376C155.524 39.3371 155.182 39.3142 154.705 39.3027C151.803 39.3027 148.701 40.6219 145.627 43.2235C145.371 43.4823 145.109 43.8419 144.812 44.2633C144.522 44.6778 144.176 45.1816 143.683 45.6809L143.209 46.0748V46.755C143.194 46.8627 143.096 47.1283 142.985 47.378C141.79 48.6673 141.256 50.0346 141.256 51.7683C141.256 52.1851 141.367 52.6614 141.548 53.3989C141.632 53.7378 141.722 54.0744 141.743 54.2302C141.743 59.6671 144.52 65.9214 150.551 67.573C151.551 67.976 152.608 68.1845 153.695 68.1845C155.873 68.1845 157.908 67.3669 159.456 65.8805C160.484 65.1934 161.711 63.5399 162.496 62.3834C164.568 61.1926 166.188 59.0741 166.809 56.7404C167.275 55.5541 167.114 53.628 166.929 52.3615C168.153 47.717 167.293 44.1172 164.477 41.751Z" fill="#FBFBFD"/>
<path d="M216.68 43.8562L216.139 43.4119C215.867 43.2744 215.598 43.0912 215.324 42.9126C214.964 42.6767 214.604 42.4431 214.396 42.3469C214.299 42.2805 214.194 42.2255 213.991 42.1294C212.773 41.44 211.453 41.1011 209.957 41.1011C209.3 41.1011 208.601 41.1675 208.11 41.2728C206.914 41.2728 204.737 42.1156 204.352 42.2966C198.792 43.5447 194.871 47.3396 193.83 52.763C193.83 54.4371 194.131 55.5021 194.487 56.7319C194.593 57.1029 194.704 57.4991 194.822 57.9502C194.88 58.4632 195.091 58.8754 195.295 59.164L195.272 59.8213L195.745 60.3C195.886 60.4717 196.173 61.1175 196.316 61.5321C196.961 64.1544 198.89 65.9155 200.574 67.0354C201.232 67.3698 202.072 67.5072 202.885 67.6423C202.953 67.6515 203.019 67.6629 203.082 67.6744L204.221 68.1187C205.26 68.4462 206.299 68.6134 207.306 68.6134C210.711 68.6134 213.81 66.7262 216.033 63.2978C217.88 60.4557 218.98 56.6974 218.958 53.5232C219.564 49.8521 218.776 46.5056 216.68 43.8562Z" fill="#FBFBFD"/>
<path d="M218.981 98.6619L218.809 98.3161C218.526 97.7481 218.055 96.7931 218.008 96.5893C218.008 95.1053 217.535 93.3395 216.663 91.5532C216.776 90.9944 216.763 90.4196 216.679 89.8699L218.474 89.8608L216.362 88.6103C216.213 88.1775 216.045 87.7927 215.891 87.4881L215.443 86.5812H212.736C212.668 86.5308 212.602 86.485 212.539 86.4392C211.418 85.349 210.309 84.788 209.322 84.291L208.98 84.1169H208.598C208.428 84.1169 208.201 84.1169 207.993 84.1146L207.38 83.8032C206.719 83.4688 206.008 83.4322 205.458 83.4344C204.754 83.3726 203.916 83.4596 203.176 83.5467C202.83 83.5856 202.51 83.6291 202.268 83.6291L201.754 83.7116C196.652 85.4315 192.505 90.9071 191.411 95.3799C190.798 99.7312 191.674 103.469 193.82 105.64C194.248 106.073 194.562 106.506 194.884 106.941C195.293 107.493 195.705 108.04 196.253 108.597C196.45 108.796 196.996 109.352 198.761 109.519C199.538 110.594 200.452 111.368 201.367 111.759C202.288 112.38 203.323 112.73 204.446 112.804C205.297 113.007 206.137 113.113 206.947 113.113C207.434 113.113 207.911 113.074 208.102 113.021C209.405 113.021 210.671 112.46 211.868 111.354C212.308 111.15 212.663 110.809 213 110.474L213.084 110.442C216.09 109.229 218.345 105.363 218.972 102.024L218.981 98.6619Z" fill="#FBFBFD"/>
<path d="M216.541 153.404C217.019 149.043 217.141 143.46 213.845 139.017C212.7 137.276 210.506 135.557 208.627 134.922L207.228 134.84C206.411 134.686 205.7 134.691 204.99 134.842C203.867 134.888 202.219 135.291 201.92 135.366C197.608 136.335 194.429 139.496 192.543 144.61C191.989 145.737 192.154 146.971 192.288 147.963C192.308 148.112 192.331 148.256 192.346 148.396C192.011 149.229 192.224 150.138 192.371 150.764C192.371 153.23 193.548 155.019 194.49 156.42C195.072 157.6 196.278 158.298 197.275 158.61C198.945 161.988 201.256 166.328 205.852 166.841C206.651 167.081 207.403 167.196 208.143 167.196C208.337 167.196 208.534 167.189 208.6 167.175C212.888 167.175 215.432 162.755 216.064 158.147C216.064 157.756 215.998 157.089 215.912 156.368C215.955 156.178 215.993 155.974 216.025 155.756C216.473 154.93 216.55 153.899 216.541 153.404Z" fill="#FBFBFD"/>
<path d="M206.515 201.462C206.828 201.066 206.957 200.635 207.011 200.237C207.161 200.145 207.317 200.033 207.475 199.909C208.39 199.733 209.221 199.371 209.961 198.833C212.507 197.612 214.577 195.184 215.65 192.141C216.759 188.992 216.668 185.581 215.457 183.145C214.676 181.168 213.334 179.623 211.364 178.411L211.305 178.51L211.348 178.402C211.348 178.402 211.346 178.402 211.346 178.4V178.393L211.195 178.308C210.572 177.935 209.916 177.603 209.322 177.367C208.8 177.103 208.132 176.975 207.281 176.975C206.126 176.975 204.922 177.216 204.87 177.225V177.238C203.545 177.429 202.425 177.809 201.544 178.351L198.828 179.723C198.198 179.888 197.531 180.328 196.91 180.971C194.853 182.531 192.523 184.301 191.969 187.18C191.407 188.886 192.091 191.472 192.378 192.4C192.553 198.322 198.516 201.768 200.573 202.955C201.053 203.198 201.644 203.319 202.33 203.319C203.822 203.324 205.716 202.74 206.515 201.462Z" fill="#FF6600"/>
<path d="M167.41 199.756C167.462 199.678 167.508 199.603 167.546 199.536C169.187 197.805 170.815 194.995 170.294 192.425C170.24 191.037 169.636 189.512 169.328 188.813V188.296L168.669 186.963C167.981 185.57 166.867 184.311 165.353 183.205L165.511 182.783C160.78 180.385 156.187 180.344 152.592 182.202C150.767 182.82 149.59 184.011 148.549 185.062C147.979 185.639 147.062 187.013 147.091 187.032C146.652 187.471 146.143 187.987 145.862 188.635C140.977 191.988 139.476 196.79 141.953 201.302L142.222 201.666C142.498 201.945 142.774 202.243 143.053 202.545C144.348 203.94 145.817 205.527 147.843 206.035L148.234 206.086C148.338 206.086 148.449 206.083 148.565 206.079C150.183 207.67 152.284 208.5 154.824 208.545C155.107 208.614 155.41 208.646 155.732 208.646C156.975 208.646 158.208 208.156 158.835 207.867C159.487 207.563 159.988 207.249 160.345 206.919C160.834 206.777 161.289 206.569 161.552 206.436C164.601 205.064 166.716 202.641 167.41 199.755L167.41 199.756Z" fill="#FBFBFD"/>
<path d="M114.807 203.455C114.807 199.736 113.759 196.48 111.692 193.766C111.124 192.419 109.723 190.969 108.487 190.328C107.744 189.078 106.651 187.937 105.218 186.941L105.286 186.797C104.67 186.403 104.012 186.084 103.326 185.784C102.839 185.436 102.178 185.237 101.352 185.164C97.3789 184.225 93.2026 185.283 90.3815 187.804C88.3465 189.176 87.2236 191.235 87.2236 193.603C87.2236 193.999 87.2825 194.466 87.3459 194.929C87.3776 195.149 87.4206 195.451 87.4342 195.664L87.2236 195.877V196.557C87.2236 197.625 87.6447 200.251 87.7103 200.496C87.7103 204.765 91.5406 208.325 93.1885 209.66L93.4783 209.847C94.4879 210.356 97.0097 211.379 97.0957 211.414L101.265 212.802C101.782 213.061 102.382 213.193 103.054 213.193C103.715 213.193 104.319 213.063 104.661 212.973C110.646 212.877 114.807 208.99 114.807 203.455Z" fill="#FBFBFD"/>
<path d="M39.2677 157.051C41.1375 158.313 42.4935 158.313 44.0645 158.313H45.674C46.9235 158.805 48.4379 158.805 49.9049 158.805C50.1652 158.805 50.43 158.761 50.7492 158.67C51.0412 158.739 51.3197 158.782 51.5958 158.793C51.9535 158.89 52.3315 158.935 52.7322 158.935C54.4028 158.935 56.0621 158.097 56.9541 157.646L57.4408 157.399L57.6852 156.909C57.8596 156.554 58.1199 156.199 58.3462 155.88C58.6383 155.47 58.9054 155.09 59.0864 154.692C60.3723 153.638 61.8278 151.999 61.8052 149.392C62.3575 147.219 62.3055 145.128 61.7146 143.541C61.117 140.52 58.2715 137.11 55.4941 135.992C54.4189 135.45 53.2055 134.833 51.8473 134.833H49.9004L49.862 135.225C46.6339 135.452 43.8541 136.959 41.4497 139.746C40.7231 140.486 39.0298 142.458 39.0298 144.81C39.0049 145.181 38.7921 146.081 38.6721 146.575C35.89 150.315 36.0555 154.356 39.2677 157.051Z" fill="#FBFBFD"/>
<path d="M41.3949 108.4C42.3071 108.863 43.9914 109.264 44.8131 109.44C47.2149 111.35 50.1261 112.438 52.8654 112.438C54.4817 112.438 56.0256 112.074 57.6237 111.249C59.0974 110.256 60.9763 108.547 61.6599 106.016C62.1308 104.965 62.2236 103.724 62.2372 102.785C63.695 98.342 61.2117 93.0836 56.4738 90.6857C55.8445 90.3674 55.1789 90.0811 54.4704 89.8704C53.7279 89.6345 53.0171 89.4742 52.39 89.3483C52.0686 89.2361 51.7109 89.1536 51.2695 89.0826L45.359 89.0322V90.033C41.0783 91.8743 37.083 95.9534 37.083 101.507C37.0875 103.891 38.2483 107.134 41.3949 108.4Z" fill="#FBFBFD"/>
<path d="M101.351 27.1879C101.533 27.1879 101.716 27.1787 101.897 27.1627C105.734 26.7939 108.002 24.1625 107.819 20.2896C107.611 15.8535 104.12 10.916 99.4387 10.916C98.3679 10.916 97.3063 11.1817 96.2853 11.7039C93.476 13.1375 92.3397 16.2385 93.3153 19.7976C94.3023 23.3795 97.4511 27.1837 101.351 27.1879Z" fill="#FBFBFD"/>
<path d="M149.37 5.45226C149.01 5.17973 148.614 4.90949 148.159 4.6049L147.753 4.33008H145.315L145.284 4.57284C141.775 4.77667 138.714 7.20199 137.935 10.3784C137.254 12.4396 137.394 15.5428 139.303 17.4755C140.749 18.9389 142.744 18.9389 144.342 18.9389C144.693 18.9389 145.084 18.8496 145.451 18.7282C146.194 19.3213 146.956 19.6213 147.733 19.6213C148.496 19.6213 149.603 19.3282 150.531 17.9403C152.118 15.5677 152.5 10.8545 151.758 9.01997C151.301 7.16718 150.404 6.26259 149.594 5.62131L149.34 5.94652L149.544 5.58238C149.53 5.57322 149.519 5.56177 149.501 5.55032L149.514 5.52054L149.37 5.45226Z" fill="#FBFBFD"/>
<path d="M249.515 144.662C244.619 143.471 240.535 146.804 240.116 152.089C239.802 156.029 241.701 160.639 246.613 161.449C247.123 161.532 247.614 161.573 248.08 161.573C252.22 161.573 255.383 158.41 255.766 153.887C256.073 150.255 254.249 145.818 249.515 144.662Z" fill="#FBFBFD"/>
<path d="M150.105 246.823C150.916 249.285 153.288 250.941 156.005 250.941C157.451 250.941 158.857 250.451 159.987 249.535C163.342 246.704 164.12 240.683 162.832 236.21C162.336 235.205 161.379 234.24 160.854 233.757L160.906 233.668C160.74 233.54 160.541 233.418 160.433 233.375C160.034 233.043 159.692 232.8 159.382 232.619C158.529 231.959 157.248 231.854 156.521 231.854L156.507 231.927C153.927 231.556 151.701 232.282 150.386 233.95L150.201 234.238C149.488 235.686 149.488 237.706 150.201 239.153L150.448 239.636L150.667 239.751C149.768 241.828 149.119 244.338 150.106 246.822L150.105 246.823Z" fill="#FBFBFD"/>
<path d="M7.86411 140.417C4.2512 140.417 1.4941 143.91 0.633523 147.364C-0.219926 150.788 0.830465 153.778 3.37491 155.164C4.28944 155.659 5.24476 155.916 6.21359 155.916C9.74503 155.916 12.3709 152.712 13.4054 149.533C14.4852 146.216 13.8377 143.17 11.7121 141.581C10.716 140.835 9.45064 140.445 7.86376 140.418L7.86411 140.417Z" fill="#FBFBFD"/>
<path d="M10.1648 93.9544C10.0177 93.8056 9.75283 93.5926 9.39291 93.3269L9.43593 93.2582L7.97585 92.2734L7.74494 92.6215C7.38727 92.5437 7.02734 92.491 6.67418 92.491C3.03414 92.491 0.856445 96.453 0.856445 100.285C0.856445 102.183 1.402 103.933 2.39574 105.208C3.24009 106.299 4.82246 107.595 7.56611 107.595C10.9277 107.595 14.5429 106.003 14.5429 102.506C14.5429 99.9708 12.4467 97.0851 11.0613 95.1774C10.7783 94.7949 10.5384 94.4674 10.1648 93.9544Z" fill="#FBFBFD"/>
<path d="M47.0217 206.281C49.4597 208.008 52.2623 208.956 54.9153 208.961C58.6504 208.961 61.8538 207.145 64.0084 203.7C64.8483 201.996 65.335 199.764 65.3168 197.757C66.5347 195.311 65.8647 191.725 64.4951 189.918C64.2642 189.455 63.9541 189.13 63.6258 188.844C61.9959 185.184 59.9744 182.383 57.2854 180.052L56.9549 179.832C56.432 179.566 55.7823 179.301 55.1303 179.037C54.5667 178.81 54.0007 178.581 53.5457 178.355L53.2039 178.181H50.8768L50.8225 178.561H50.784C47.6464 178.561 44.7762 179.779 42.7137 181.985C40.4409 184.415 39.309 187.875 39.5264 191.805C40.0968 197.574 43.0215 203.245 47.0217 206.281Z" fill="#FBFBFD"/>
<path d="M104.817 235.848L104.683 235.816C103.793 235.06 102.542 234.87 101.874 234.826C100.907 234.432 99.8319 234.343 99.1482 234.327C95.6915 234.327 93.163 237.673 92.7168 240.907C92.2504 244.283 93.9527 246.958 97.0971 247.865C97.1355 247.878 97.174 247.89 97.2148 247.901C98.0682 250.393 99.9765 251.966 102.224 251.966C102.562 251.966 102.913 251.93 102.96 251.891C104.384 251.891 105.729 250.503 106.501 249.513C109.425 247.603 111.637 243.939 109.765 240.153C109.69 240.002 109.609 239.858 109.495 239.654L109.668 239.489C108.524 237.749 107.264 236.464 104.817 235.848Z" fill="#FBFBFD"/>
<path d="M247.516 107.081C250.187 106.073 252.406 103.932 253.454 101.356C254.391 99.0472 254.334 96.5234 253.288 94.2446C251.396 90.1199 248.403 89.5039 246.787 89.5039C242.286 89.5039 237.879 93.8942 236.586 97.9916C235.552 101.276 236.401 104.191 238.913 105.996C240.468 107.116 242.282 107.706 244.154 107.706C245.286 107.704 246.416 107.493 247.516 107.081Z" fill="#FBFBFD"/>
</g>
<defs>
<clipPath id="clip0_2347_4542">
<rect width="256" height="248" fill="white" transform="translate(0 4)"/>
</clipPath>
</defs>
</svg>
