<svg width="256" height="256" viewBox="0 0 256 256" fill="none" xmlns="http://www.w3.org/2000/svg">
<path d="M28 65.4799C28 72.737 28.4821 79.9704 28.9975 87.6324L30.7591 104.005C30.2258 116.877 31.2156 128.227 32.9798 142.353C33.5157 146.651 33.5157 151.572 33.5157 155.91C33.5157 157.08 33.7439 158.862 33.9132 160.164C33.9901 160.759 34.0593 161.239 34.067 161.426C34.067 169.811 34.6286 178.781 35.2056 187.702C35.3979 188.645 35.521 190.228 35.6569 191.897C35.7235 192.687 35.7902 193.507 35.8671 194.312C33.1055 197.015 32.5208 200.467 34.4337 203.885C35.6774 205.539 37.639 206.446 39.9623 206.446C41.3111 206.446 42.7111 206.123 43.6599 205.626C45.319 205.072 48.0678 203.975 48.0961 203.962L52.7733 202.403C54.0682 202.333 56.1888 201.918 56.3068 201.862C61.0122 201.862 65.5791 201.723 70.1487 201.585C74.6823 201.449 79.2136 201.308 83.8776 201.308H98.7659C99.9865 201.308 100.32 201.418 100.222 201.318L100.758 201.854H102.192C102.52 202.123 102.912 202.297 103.325 202.369C107.156 203.7 109.923 206.523 113.123 209.78L114.847 211.47C115.298 211.772 115.906 212.149 116.557 212.554C117.403 213.08 118.847 213.98 119.542 214.503V215.044L120.693 215.503C121.627 215.878 122.591 216.065 123.55 216.065C125.045 216.065 126.486 215.598 127.655 214.742C130.386 214.006 132.527 211.862 133.707 210.688L134.053 210.211C134.468 209.377 134.517 208.357 134.186 207.118C134.814 206.372 135.391 205.693 135.915 205.175C137.535 203.554 139.571 202.072 141.507 201.108L141.835 200.897C144.471 198.792 150.372 195.023 150.361 195.023C154.669 192.766 159.016 190.766 163.878 188.794C165.16 188.412 166.296 188.174 167.514 188.03C170.101 187.515 173.522 188.048 175.727 187.489C178.899 186.961 181.528 185.761 184.077 184.604C187.013 183.266 189.79 182.001 193.239 181.994C195.459 181.796 197.883 182.35 200.485 182.942C204.709 183.907 209.327 184.563 212.643 182.914C213.102 182.686 213.533 182.389 213.95 182.001C214.084 182.03 214.363 182.137 214.627 182.25C216.181 183.684 218.24 184.499 220.333 184.499C223.233 184.499 225.631 182.945 226.808 180.194C227.672 177.591 227.385 174.796 227.131 172.334C227.018 171.234 226.903 170.157 226.903 169.136V168.034C226.903 164.436 227.19 160.066 227.464 155.841C227.741 151.617 228 147.627 228 144.22C227.805 140.745 227.549 137.409 227.29 134.112C226.805 127.906 226.349 122.042 226.349 115.649C226.349 113.146 226.408 110.469 226.467 107.731C226.592 101.959 226.72 95.9943 226.341 90.6889C225.787 83.7272 225.228 77.3268 224.672 70.9238C224.128 64.644 223.579 58.3614 223.038 51.6866C223.038 50.3276 223.038 47.7941 220.92 46.735C220.282 46.4145 219.451 45.8965 218.91 45.5503C218.31 44.8016 217.543 44.1682 217.094 43.822C215.61 41.4245 212.522 40.6936 210.235 40.15L196.367 39.9346C195.26 39.9346 193.529 40.3218 192.839 40.4859C190.098 40.4859 186.744 40.5013 184.236 41.0372L180.021 41.0731C179.056 41.2654 177.959 41.3039 176.797 41.35C174.846 41.4244 172.82 41.4962 171.2 42.1808C169.069 42.6065 163.41 43.7348 162.737 43.7989L162.34 43.8424C150.785 46.4119 141.074 50.7969 133.438 56.9097C130.456 59.3945 128.743 61.4715 126.571 64.1077L125.487 65.4155L125.243 65.7975C124.699 66.8822 124.279 67.6438 124.004 68.0669H123.543L123.035 69.0849C122.627 69.9003 122.068 71.0183 121.727 71.3646L121.407 71.7697C119.679 70.4799 117.976 69.4696 116.881 68.9285C116.178 68.4618 115.473 68.0823 114.807 67.7234C113.96 67.2669 113.227 66.8771 112.747 66.4028L112.119 65.9258L111.458 65.8643C111.273 65.8489 110.806 65.5591 110.542 65.3027L110.176 65.0206C98.6056 58.1844 88.9998 53.8741 74.2093 52.0991C72.3297 51.8298 70.5886 51.4273 68.8423 51.0247C67.0037 50.6016 65.1626 50.1785 62.924 49.8785C61.6753 49.8785 58.7084 49.4964 57.6673 49.3451L57.634 49.5502C55.4313 49.4759 53.1978 49.5861 51.3439 49.8785C48.9438 49.8785 44.923 49.8785 41.8385 51.1144L41.8564 51.1657C39.1947 51.4708 37.1869 52.2581 35.7612 53.5633C31.2583 53.4863 29.3839 56.1044 28.6453 58.3046C28.0017 60.2175 28.0016 61.5689 28.0016 63.2767C28.0016 63.6562 28.0837 64.0049 28.1555 64.3177C28.1709 64.3767 28.1837 64.4459 28.2042 64.5203L28.0016 64.7177L28 65.4799ZM114.573 90.8582L114.608 98.3766C115.132 100.982 115.67 106.839 115.678 106.839C115.678 107.524 115.616 108.206 115.565 108.89C115.437 110.416 115.303 111.99 115.678 113.67L115.68 128.771C115.126 137.105 115.126 142.174 115.147 150.151C115.67 153.27 115.675 159.163 115.675 159.221C115.675 161.352 115.675 164.001 115.124 166.942L115.126 180.607C114.983 182.766 114.888 184.843 114.811 186.887C114.614 186.82 114.421 186.761 114.234 186.707C107.242 184.376 99.1331 183.951 91.9765 183.576C90.3764 183.492 88.8199 183.41 87.3069 183.307L87.1864 183.302C85.712 183.302 84.117 183.42 82.481 183.54C79.1603 183.786 75.4091 183.869 73.4955 183.415C69.3158 181.848 63.872 180.635 57.9613 179.989C55.9792 179.989 53.0611 179.709 51.5456 179.448C51.6225 176.43 51.961 173.311 52.32 170.037C52.7431 166.16 53.179 162.146 53.179 158.039C52.8995 151.367 52.1943 144.471 51.5148 137.802C50.8379 131.189 50.1429 124.347 49.8711 117.862C49.8711 113.888 49.33 109.467 48.8044 105.19C48.5838 103.415 48.371 101.674 48.1787 99.8584C47.9915 98.9174 47.8043 97.5788 47.6197 96.2403C47.2376 93.5171 46.994 91.799 46.5606 90.7912C46.5581 88.1808 46.5196 85.5114 46.0119 83.1239C46.0119 81.5905 45.6144 78.5903 45.476 77.621C45.6426 76.4415 45.6426 75.1286 45.6452 73.7465C45.6452 71.295 45.6452 68.5128 46.7478 67.1334C46.776 67.0924 47.0684 66.7539 48.4505 66.4538C63.4156 67.3257 75.875 69.8438 87.6045 74.3542C88.4532 74.6927 89.8148 75.1363 91.3918 75.6518C94.81 76.7646 99.495 78.2878 101.8 79.8058C102.818 80.3135 103.928 81.1649 105.105 82.0675C106.164 82.8752 107.351 83.7881 108.664 84.5881C109.664 85.5292 110.854 86.1215 112.003 86.6985C112.944 87.1703 113.834 87.6139 114.452 88.1806C114.403 89.6115 114.562 90.8582 114.573 90.8582ZM173.094 57.3944L173.481 57.1995C174.255 56.8123 176.548 56.3251 177.086 56.2867H179.273C183.651 56.2867 186.546 56.2867 191.608 55.7251L192.225 55.5405C192.649 55.3276 193.854 55.1841 194.715 55.1841C196.446 55.1841 200.08 54.6738 200.229 54.6327C200.931 54.6327 201.526 54.7661 202.144 54.9045C202.68 55.0251 203.239 55.1482 203.842 55.1764C204.265 55.2789 204.739 55.3789 205.231 55.4789C205.606 56.8611 205.993 59.2766 206.106 59.9612C206.106 64.0051 206.352 66.436 206.665 69.5185C206.831 71.1775 207.021 73.0597 207.206 75.4034C207.206 77.0497 208.014 79.7345 208.308 80.6576C208.319 98.7815 209.337 116.103 210.419 134.44L210.514 136.058C210.514 145.385 210.514 145.941 209.962 157.565V164.735C209.962 165.017 209.991 165.36 210.032 165.727C208.462 165.376 206.844 165.101 205.19 165.101C204.124 165.101 201.657 165.484 200.734 165.635C198.936 165.43 197.095 165.327 195.254 165.327C185.658 165.327 176.935 168.032 167.698 170.897C165.526 171.569 163.334 172.251 161.128 172.892C157.754 173.856 154.843 175.564 151.761 177.374L149.576 178.648C149.384 178.777 149.158 178.913 148.981 179.013L147.709 179.572C142.409 181.697 137.57 183.723 133.137 186.439V180.726C133.137 177.91 132.601 172.5 132.585 172.453C132.585 171.012 132.447 169.573 132.298 168.135C132.17 166.819 132.034 165.504 132.034 164.183L132.032 158.562C131.488 149.244 131.488 140.428 131.47 131.359C131.878 128.476 131.716 125.104 131.588 122.397C131.532 121.304 131.488 120.32 131.488 119.522V97.4642C131.488 95.7205 130.965 93.0383 130.937 93.0383V88.8483C132.921 86.2814 134.48 83.1762 135.755 80.6427C136.511 79.1272 137.232 77.6989 137.737 77.063C140.978 72.7448 141.994 71.7396 145.738 68.5318L146.187 67.9625C146.271 67.7856 146.748 67.4445 147.01 67.265C147.34 67.0291 147.73 66.7496 148.038 66.3803C155.354 63.2494 159.228 61.6057 168.311 58.4005L168.906 58.0415C168.983 58.0005 169.214 57.9569 169.355 57.9543H169.788L170.175 57.7595C170.888 57.403 171.67 57.403 172.665 57.403L173.094 57.3944Z" fill="#FBFBFD"/>
</svg>
