<svg width="298" height="436" viewBox="0 0 298 436" fill="none" xmlns="http://www.w3.org/2000/svg">
<g clip-path="url(#clip0_20237_3203)">
<path d="M18.6298 327.171H20.9529V337.472H28.6969V344.828H20.9529V358.534C20.9529 360.188 21.1848 361.478 21.6498 362.406C22.1138 363.286 22.9409 363.724 24.1279 363.724C25.0059 363.724 25.8568 363.516 26.6828 363.104C27.5098 362.691 28.3098 362.226 29.0838 361.711V370.538C27.4318 371.468 25.9088 372.112 24.5148 372.473C23.1208 372.886 21.7018 373.094 20.2558 373.094C17.0028 373.094 14.4478 372.243 12.5888 370.538C10.7308 368.783 9.80085 365.997 9.80085 362.175V344.828H5.46484V342.118L18.6298 327.171Z" fill="#111111"/>
<path d="M47.443 325.235C47.443 326.889 46.849 328.332 45.661 329.574C44.526 330.761 43.106 331.353 41.402 331.353C39.802 331.353 38.356 330.761 37.066 329.574C35.827 328.332 35.207 326.889 35.207 325.235C35.207 323.481 35.827 322.035 37.066 320.899C38.305 319.711 39.75 319.119 41.402 319.119C43.054 319.119 44.474 319.711 45.661 320.899C46.849 322.086 47.443 323.532 47.443 325.235ZM46.9 337.471V372.319H35.749V337.471H46.9Z" fill="#111111"/>
<path d="M84.558 348.701V372.321H73.406V350.404C73.406 347.719 72.503 346.378 70.696 346.378C69.973 346.378 69.276 346.689 68.605 347.306C67.934 347.875 67.366 348.909 66.901 350.404V372.321H55.75V337.473H66.901V342.119H67.056C68.14 340.362 69.328 339.047 70.618 338.17C71.961 337.293 73.51 336.852 75.265 336.852C78.053 336.852 80.298 337.86 82.002 339.872C83.706 341.885 84.558 344.829 84.558 348.701Z" fill="#111111"/>
<path d="M101.432 337.473L105.614 352.96H105.769L110.183 337.473H121.489L102.516 389.59H91.83L100.116 367.44L89.584 337.473H101.432Z" fill="#111111"/>
<path d="M27.9814 401.535V409.632C26.6454 408.655 25.2824 407.885 23.8944 407.317C22.5064 406.754 21.0924 406.47 19.6524 406.47C18.7794 406.47 18.1624 406.649 17.8024 407.011C17.4424 407.37 17.2624 407.807 17.2624 408.322C17.2624 408.989 17.5454 409.606 18.1104 410.172C18.7274 410.687 19.4984 411.251 20.4244 411.868L23.3544 413.798C25.1544 415.03 26.5934 416.495 27.6734 418.192C28.8044 419.891 29.3704 421.843 29.3704 424.054C29.3704 427.293 28.2904 429.917 26.1314 431.92C23.9714 433.874 21.1444 434.85 17.6474 434.85C16.0024 434.85 14.3314 434.646 12.6354 434.233C10.9384 433.823 9.11343 433.053 7.15943 431.92V423.283C8.80443 424.569 10.2704 425.494 11.5554 426.06C12.8924 426.623 14.3064 426.909 15.7964 426.909C16.4134 426.909 17.0054 426.751 17.5704 426.444C18.1874 426.137 18.4964 425.622 18.4964 424.902C18.4964 423.564 16.5424 421.664 12.6354 419.197C8.72744 416.675 6.77344 413.206 6.77344 408.783C6.77344 405.853 7.85344 403.436 10.0124 401.535C12.1724 399.631 14.8974 398.682 18.1874 398.682C19.8334 398.682 21.4524 398.911 23.0464 399.376C24.6914 399.789 26.3364 400.505 27.9814 401.535Z" fill="#111111"/>
<path d="M46.0993 389.12H48.4123V399.376H56.1243V406.7H48.4123V420.352C48.4123 421.996 48.6443 423.283 49.1063 424.208C49.5693 425.081 50.3923 425.519 51.5743 425.519C52.4483 425.519 53.2973 425.315 54.1193 424.902C54.9423 424.492 55.7393 424.028 56.5103 423.513V432.306C54.8653 433.231 53.3483 433.875 51.9603 434.233C50.5723 434.646 49.1583 434.85 47.7183 434.85C44.4793 434.85 41.9343 434.003 40.0833 432.306C38.2323 430.556 37.3073 427.782 37.3073 423.977V406.7H32.9883V404.003L46.0993 389.12Z" fill="#111111"/>
<path d="M73.9449 399.376V421.2C73.9449 423.926 74.8448 425.29 76.6438 425.29C77.4158 425.29 78.1358 424.979 78.8038 424.361C79.4718 423.747 80.0378 422.691 80.4998 421.2V399.376H91.6059V434.08H80.4998V429.453H80.3458C78.2378 432.95 75.5129 434.697 72.1709 434.697C69.3949 434.697 67.1328 433.721 65.3848 431.766C63.6878 429.759 62.8398 426.832 62.8398 422.976V399.376H73.9449Z" fill="#111111"/>
<path d="M129.077 382.563V434.08H116.892C110.774 434.08 106.224 432.665 103.242 429.837C100.311 426.96 98.8457 422.666 98.8457 416.96C98.8457 411.459 100.028 407.062 102.393 403.773C104.81 400.428 108.126 398.758 112.342 398.758C113.01 398.758 113.833 398.809 114.81 398.911C115.787 399.018 116.84 399.248 117.971 399.607V382.563H129.077ZM116.198 425.366H117.971V407.783C117.046 407.421 116.043 407.242 114.964 407.242C113.473 407.242 112.316 408.064 111.493 409.709C110.722 411.357 110.337 413.798 110.337 417.037C110.337 419.968 110.774 422.099 111.648 423.436C112.522 424.723 114.038 425.366 116.198 425.366Z" fill="#111111"/>
<path d="M186.77 416.883C186.77 422.486 185.356 426.909 182.528 430.147C179.701 433.385 175.999 435.005 171.423 435.005C166.847 435.005 163.171 433.385 160.395 430.147C157.619 426.857 156.23 422.435 156.23 416.883C156.23 411.536 157.645 407.164 160.472 403.773C163.351 400.377 167.002 398.682 171.423 398.682C175.999 398.682 179.701 400.352 182.528 403.695C185.356 406.985 186.77 411.382 186.77 416.883ZM171.423 426.214C172.709 426.214 173.66 425.468 174.277 423.977C174.894 422.486 175.202 420.147 175.202 416.959C175.202 413.823 174.894 411.459 174.277 409.865C173.66 408.217 172.683 407.395 171.346 407.395C170.215 407.395 169.315 408.166 168.647 409.708C168.03 411.251 167.721 413.67 167.721 416.959C167.721 420.249 168.03 422.614 168.647 424.054C169.264 425.494 170.189 426.214 171.423 426.214Z" fill="#111111"/>
<path d="M255.688 191.952H191.885V292.959L255.688 274.581V191.952Z" fill="#111111"/>
<path fill-rule="evenodd" clip-rule="evenodd" d="M0.199219 0.160156H297.799V297.76H250.887V280.958L192.562 297.76H0.199219V0.160156ZM250.887 270.968V196.753H196.684V286.582L250.887 270.968ZM187.084 288.16V187.152H260.487V288.16H288.199V9.76011H9.79922V288.16H187.084Z" fill="#111111"/>
<path d="M148.646 399.278V433.982H137.54V399.278H148.646Z" fill="#111111"/>
<path d="M147.412 391.412C148.594 390.177 149.185 388.737 149.185 387.092C149.185 385.396 148.594 383.956 147.412 382.776C146.229 381.592 144.815 381 143.17 381C141.525 381 140.085 381.592 138.851 382.776C137.617 383.905 137 385.345 137 387.092C137 388.737 137.617 390.177 138.851 391.412C140.136 392.593 141.576 393.185 143.17 393.185C144.867 393.185 146.28 392.593 147.412 391.412Z" fill="#FF6600"/>
</g>
<defs>
<clipPath id="clip0_20237_3203">
<rect width="298" height="436" fill="white"/>
</clipPath>
</defs>
</svg>
