<svg width="298" height="436" viewBox="0 0 298 436" fill="none" xmlns="http://www.w3.org/2000/svg">
<g clip-path="url(#clip0_20237_3189)">
<path d="M18.6298 327.171H20.9529V337.472H28.6969V344.829H20.9529V358.534C20.9529 360.189 21.1848 361.478 21.6498 362.406C22.1138 363.286 22.9399 363.725 24.1279 363.725C25.0059 363.725 25.8568 363.517 26.6828 363.104C27.5088 362.691 28.3098 362.227 29.0838 361.712V370.538C27.4318 371.469 25.9088 372.112 24.5148 372.474C23.1208 372.886 21.7008 373.094 20.2558 373.094C17.0028 373.094 14.4478 372.243 12.5888 370.538C10.7308 368.784 9.80085 365.997 9.80085 362.176V344.829H5.46484V342.118L18.6298 327.171Z" fill="white"/>
<path d="M47.443 325.235C47.443 326.89 46.849 328.333 45.661 329.574C44.526 330.762 43.106 331.354 41.402 331.354C39.802 331.354 38.356 330.762 37.066 329.574C35.827 328.333 35.207 326.89 35.207 325.235C35.207 323.482 35.827 322.035 37.066 320.899C38.305 319.712 39.75 319.12 41.402 319.12C43.054 319.12 44.474 319.712 45.661 320.899C46.849 322.086 47.443 323.533 47.443 325.235ZM46.9 337.472V372.32H35.749V337.472H46.9Z" fill="white"/>
<path d="M84.558 348.701V372.32H73.406V350.403C73.406 347.718 72.503 346.378 70.696 346.378C69.973 346.378 69.276 346.688 68.605 347.306C67.934 347.875 67.366 348.909 66.901 350.403V372.32H55.75V337.472H66.901V342.118H67.056C68.14 340.362 69.328 339.046 70.618 338.17C71.961 337.293 73.51 336.851 75.265 336.851C78.053 336.851 80.298 337.859 82.002 339.872C83.706 341.885 84.558 344.829 84.558 348.701Z" fill="white"/>
<path d="M101.434 337.472L105.616 352.96H105.771L110.185 337.472H121.491L102.518 389.59H91.8319L100.118 367.44L89.5859 337.472H101.434Z" fill="white"/>
<path d="M27.9814 401.536V409.632C26.6454 408.656 25.2824 407.885 23.8944 407.318C22.5064 406.755 21.0924 406.47 19.6524 406.47C18.7794 406.47 18.1624 406.65 17.8024 407.011C17.4424 407.37 17.2624 407.808 17.2624 408.323C17.2624 408.989 17.5454 409.606 18.1104 410.173C18.7274 410.688 19.4984 411.251 20.4244 411.869L23.3544 413.798C25.1544 415.03 26.5934 416.496 27.6734 418.192C28.8044 419.891 29.3704 421.843 29.3704 424.054C29.3704 427.293 28.2904 429.917 26.1314 431.92C23.9714 433.875 21.1434 434.851 17.6474 434.851C16.0024 434.851 14.3314 434.646 12.6354 434.234C10.9384 433.824 9.11343 433.053 7.15943 431.92V423.283C8.80443 424.57 10.2694 425.494 11.5554 426.061C12.8924 426.624 14.3064 426.909 15.7964 426.909C16.4134 426.909 17.0054 426.752 17.5704 426.445C18.1874 426.138 18.4964 425.622 18.4964 424.902C18.4964 423.565 16.5424 421.664 12.6354 419.197C8.72744 416.675 6.77344 413.206 6.77344 408.784C6.77344 405.853 7.85344 403.437 10.0124 401.536C12.1724 399.632 14.8974 398.682 18.1874 398.682C19.8324 398.682 21.4524 398.912 23.0464 399.376C24.6914 399.789 26.3364 400.506 27.9814 401.536Z" fill="white"/>
<path d="M46.0993 389.12H48.4123V399.376H56.1243V406.701H48.4123V420.352C48.4123 421.997 48.6443 423.283 49.1063 424.208C49.5693 425.082 50.3923 425.52 51.5743 425.52C52.4483 425.52 53.2973 425.315 54.1193 424.902C54.9423 424.493 55.7393 424.029 56.5103 423.514V432.307C54.8653 433.232 53.3483 433.875 51.9603 434.234C50.5723 434.646 49.1583 434.851 47.7183 434.851C44.4793 434.851 41.9343 434.003 40.0833 432.307C38.2323 430.557 37.3073 427.782 37.3073 423.978V406.701H32.9883V404.003L46.0993 389.12Z" fill="white"/>
<path d="M73.9449 399.376V421.2C73.9449 423.926 74.8448 425.29 76.6438 425.29C77.4158 425.29 78.1358 424.979 78.8038 424.362C79.4718 423.747 80.0378 422.691 80.4998 421.2V399.376H91.6059V434.08H80.4998V429.453H80.3458C78.2378 432.95 75.5129 434.698 72.1709 434.698C69.3949 434.698 67.1328 433.722 65.3848 431.766C63.6878 429.76 62.8398 426.832 62.8398 422.976V399.376H73.9449Z" fill="white"/>
<path d="M129.079 382.562V434.079H116.894C110.776 434.079 106.226 432.666 103.243 429.837C100.313 426.96 98.8477 422.666 98.8477 416.96C98.8477 411.459 100.03 407.062 102.395 403.773C104.811 400.429 108.128 398.758 112.344 398.758C113.012 398.758 113.835 398.809 114.811 398.911C115.788 399.017 116.842 399.247 117.973 399.605V382.562H129.079ZM116.2 425.366H117.973V407.782C117.048 407.421 116.045 407.242 114.966 407.242C113.475 407.242 112.318 408.064 111.495 409.709C110.724 411.357 110.339 413.797 110.339 417.036C110.339 419.967 110.776 422.099 111.65 423.437C112.523 424.723 114.04 425.366 116.2 425.366Z" fill="white"/>
<path d="M148.962 399.376V434.08H137.856V399.376H148.962Z" fill="white"/>
<path d="M147.728 391.51C148.91 390.275 149.501 388.835 149.501 387.19C149.501 385.494 148.91 384.054 147.728 382.874C146.545 381.69 145.131 381.098 143.486 381.098C141.841 381.098 140.401 381.69 139.167 382.874C137.933 384.003 137.316 385.443 137.316 387.19C137.316 388.835 137.933 390.275 139.167 391.51C140.452 392.691 141.892 393.283 143.486 393.283C145.183 393.283 146.596 392.691 147.728 391.51Z" fill="#FF6600"/>
<path d="M186.77 416.883C186.77 422.486 185.356 426.909 182.528 430.147C179.701 433.386 175.999 435.005 171.423 435.005C166.847 435.005 163.171 433.386 160.395 430.147C157.619 426.858 156.23 422.435 156.23 416.883C156.23 411.536 157.645 407.165 160.472 403.773C163.351 400.378 167.002 398.682 171.423 398.682C175.999 398.682 179.701 400.352 182.528 403.696C185.356 406.986 186.77 411.382 186.77 416.883ZM171.423 426.214C172.709 426.214 173.66 425.469 174.277 423.978C174.894 422.486 175.202 420.147 175.202 416.96C175.202 413.824 174.894 411.459 174.277 409.866C173.66 408.218 172.683 407.395 171.346 407.395C170.215 407.395 169.315 408.166 168.647 409.709C168.03 411.251 167.721 413.67 167.721 416.96C167.721 420.25 168.03 422.614 168.647 424.054C169.264 425.494 170.189 426.214 171.423 426.214Z" fill="white"/>
<path d="M255.69 191.952H191.887V292.96L255.69 274.58V191.952Z" fill="white"/>
<path fill-rule="evenodd" clip-rule="evenodd" d="M0.199219 0.160156H297.799V297.76H250.887V280.958L192.562 297.76H0.199219V0.160156ZM250.887 270.968V196.752H196.684V286.582L250.887 270.968ZM187.084 288.16V187.152H260.487V288.16H288.199V9.76015H9.79922V288.16H187.084Z" fill="white"/>
</g>
<defs>
<clipPath id="clip0_20237_3189">
<rect width="298" height="436" fill="white"/>
</clipPath>
</defs>
</svg>
